<svg xmlns="http://www.w3.org/2000/svg" width="148" height="148" fill="none"><rect width="148" height="148" fill="#1F1F1F" rx="16"/><path fill="#F2F2F2" fill-rule="evenodd" d="M69.548 20.179c-4.586.575-9.561 2.006-13.035 3.75-3.867 1.94-8.686 5.584-10.535 7.967a59.84 59.84 0 0 1-1.247 1.569c-1.99 2.26-4.208 7.675-5.272 12.868-.656 3.2-.603 8.009.119 10.715 1.88 7.057 5.675 10.33 11.464 9.893 3.203-.242 6.706-2.39 7.938-4.866.372-.749.45-1.48.43-4.03-.013-1.713-.157-3.788-.32-4.61-.534-2.715-.62-6.786-.184-8.847.629-2.976 2.071-5.612 4.14-7.563 3.09-2.916 6.426-4.205 10.967-4.238 2.919-.022 5.055.427 7.702 1.618 1.986.893 5.004 3.864 6.177 6.08 1.934 3.655 2.46 8.298 1.327 11.696-1.008 3.02-3.337 6.486-7.154 10.65a5501.9 5501.9 0 0 1-5.538 6.03c-6.347 6.9-8.69 11.286-9.637 18.038-.465 3.32-.36 6.498.277 8.33.536 1.546 1.983 3.007 3.51 3.547 1.66.586 5.167.784 6.854.386 3.657-.86 4.683-2.133 5.698-7.062.686-3.331 4.112-8.745 8.2-12.957 2.608-2.686 5.962-5.952 6.98-6.795 1.452-1.205 4.89-5.22 6.362-7.433 3.292-4.947 4.284-8.718 4.233-16.09-.03-4.465-.691-7.4-2.481-11.02-1.369-2.771-2.583-4.419-5.216-7.081-4.92-4.976-11.719-8.473-19.569-10.069-3-.61-9.197-.852-12.19-.476Zm3.526 86.724c-2.33.46-5.166 2.49-6.803 4.869-1.018 1.48-1.826 4.572-1.615 6.186.577 4.429 3.142 8.006 6.678 9.315C77.888 129.7 84.9 125.814 86 119.144c1.234-7.472-5.374-13.729-12.927-12.241Z" clip-rule="evenodd"/></svg>